G04 #@! TF.GenerationSoftware,KiCad,Pcbnew,5.0.2-bee76a0~70~ubuntu18.04.1*
G04 #@! TF.CreationDate,2019-10-10T21:29:05+02:00*
G04 #@! TF.ProjectId,prototype2,70726f74-6f74-4797-9065-322e6b696361,rev?*
G04 #@! TF.SameCoordinates,PX62b5c68PY68c4118*
G04 #@! TF.FileFunction,Copper,L1,Top*
G04 #@! TF.FilePolarity,Positive*
%FSLAX46Y46*%
G04 Gerber Fmt 4.6, Leading zero omitted, Abs format (unit mm)*
G04 Created by KiCad (PCBNEW 5.0.2-bee76a0~70~ubuntu18.04.1) date tor 10 okt 2019 21:29:05*
%MOMM*%
%LPD*%
G01*
G04 APERTURE LIST*
G04 #@! TA.AperFunction,SMDPad,CuDef*
%ADD10R,1.000000X1.600000*%
G04 #@! TD*
G04 #@! TA.AperFunction,SMDPad,CuDef*
%ADD11R,1.600000X1.000000*%
G04 #@! TD*
G04 #@! TA.AperFunction,SMDPad,CuDef*
%ADD12R,3.000000X2.000000*%
G04 #@! TD*
G04 #@! TA.AperFunction,SMDPad,CuDef*
%ADD13R,0.800000X0.800000*%
G04 #@! TD*
G04 #@! TA.AperFunction,SMDPad,CuDef*
%ADD14R,2.000000X2.500000*%
G04 #@! TD*
G04 #@! TA.AperFunction,SMDPad,CuDef*
%ADD15R,0.500000X2.300000*%
G04 #@! TD*
G04 #@! TA.AperFunction,SMDPad,CuDef*
%ADD16R,2.900680X5.400040*%
G04 #@! TD*
G04 #@! TA.AperFunction,SMDPad,CuDef*
%ADD17R,0.900000X0.500000*%
G04 #@! TD*
G04 #@! TA.AperFunction,SMDPad,CuDef*
%ADD18R,0.500000X0.900000*%
G04 #@! TD*
G04 #@! TA.AperFunction,SMDPad,CuDef*
%ADD19R,0.900000X1.700000*%
G04 #@! TD*
G04 #@! TA.AperFunction,SMDPad,CuDef*
%ADD20R,1.600000X2.000000*%
G04 #@! TD*
G04 #@! TA.AperFunction,ComponentPad*
%ADD21O,1.800000X1.800000*%
G04 #@! TD*
G04 #@! TA.AperFunction,ComponentPad*
%ADD22R,1.800000X1.800000*%
G04 #@! TD*
G04 #@! TA.AperFunction,SMDPad,CuDef*
%ADD23R,2.000000X0.650000*%
G04 #@! TD*
G04 #@! TA.AperFunction,SMDPad,CuDef*
%ADD24R,1.350000X1.800000*%
G04 #@! TD*
G04 #@! TA.AperFunction,SMDPad,CuDef*
%ADD25R,1.500000X0.650000*%
G04 #@! TD*
G04 #@! TA.AperFunction,ComponentPad*
%ADD26C,1.143000*%
G04 #@! TD*
G04 #@! TA.AperFunction,Conductor*
%ADD27C,0.500000*%
G04 #@! TD*
G04 #@! TA.AperFunction,Conductor*
%ADD28C,2.000000*%
G04 #@! TD*
G04 #@! TA.AperFunction,Conductor*
%ADD29C,1.000000*%
G04 #@! TD*
G04 #@! TA.AperFunction,Conductor*
%ADD30C,1.500000*%
G04 #@! TD*
G04 APERTURE END LIST*
D10*
G04 #@! TO.P,C1,2*
G04 #@! TO.N,GND*
X11025000Y3175000D03*
G04 #@! TO.P,C1,1*
G04 #@! TO.N,/12V*
X8025000Y3175000D03*
G04 #@! TD*
D11*
G04 #@! TO.P,C2,1*
G04 #@! TO.N,/VBAT*
X15240000Y10390000D03*
G04 #@! TO.P,C2,2*
G04 #@! TO.N,GND*
X15240000Y7390000D03*
G04 #@! TD*
D10*
G04 #@! TO.P,C3,2*
G04 #@! TO.N,GND*
X16105000Y31115000D03*
G04 #@! TO.P,C3,1*
G04 #@! TO.N,/VUSB*
X13105000Y31115000D03*
G04 #@! TD*
D12*
G04 #@! TO.P,D1,2*
G04 #@! TO.N,/SW*
X4445000Y9945000D03*
G04 #@! TO.P,D1,1*
G04 #@! TO.N,/12V*
X4445000Y5295000D03*
G04 #@! TD*
D13*
G04 #@! TO.P,D2,1*
G04 #@! TO.N,/chg*
X12535000Y27940000D03*
G04 #@! TO.P,D2,2*
G04 #@! TO.N,Net-(D2-Pad2)*
X14135000Y27940000D03*
G04 #@! TD*
G04 #@! TO.P,D3,2*
G04 #@! TO.N,Net-(D3-Pad2)*
X14135000Y26035000D03*
G04 #@! TO.P,D3,1*
G04 #@! TO.N,/stb*
X12535000Y26035000D03*
G04 #@! TD*
D14*
G04 #@! TO.P,J1,6*
G04 #@! TO.N,GND*
X5710000Y39630000D03*
X5710000Y34130000D03*
X14610000Y39630000D03*
X14610000Y34130000D03*
D15*
G04 #@! TO.P,J1,5*
X8560000Y34030000D03*
G04 #@! TO.P,J1,4*
G04 #@! TO.N,Net-(J1-Pad4)*
X9360000Y34030000D03*
G04 #@! TO.P,J1,3*
G04 #@! TO.N,Net-(J1-Pad3)*
X10160000Y34030000D03*
G04 #@! TO.P,J1,2*
G04 #@! TO.N,Net-(J1-Pad2)*
X10960000Y34030000D03*
G04 #@! TO.P,J1,1*
G04 #@! TO.N,Net-(J1-Pad1)*
X11760000Y34030000D03*
G04 #@! TD*
D16*
G04 #@! TO.P,L1,2*
G04 #@! TO.N,/VBAT*
X14526260Y17780000D03*
G04 #@! TO.P,L1,1*
G04 #@! TO.N,/SW*
X4523740Y17780000D03*
G04 #@! TD*
D17*
G04 #@! TO.P,R1,1*
G04 #@! TO.N,/12V*
X27305000Y14490000D03*
G04 #@! TO.P,R1,2*
G04 #@! TO.N,/dir_b*
X27305000Y15990000D03*
G04 #@! TD*
G04 #@! TO.P,R2,1*
G04 #@! TO.N,/dir_b*
X25400000Y15990000D03*
G04 #@! TO.P,R2,2*
G04 #@! TO.N,GND*
X25400000Y14490000D03*
G04 #@! TD*
G04 #@! TO.P,R3,1*
G04 #@! TO.N,/prog*
X3810000Y27940000D03*
G04 #@! TO.P,R3,2*
G04 #@! TO.N,GND*
X3810000Y26440000D03*
G04 #@! TD*
G04 #@! TO.P,R4,2*
G04 #@! TO.N,/dir_a*
X21590000Y15990000D03*
G04 #@! TO.P,R4,1*
G04 #@! TO.N,/12V*
X21590000Y14490000D03*
G04 #@! TD*
G04 #@! TO.P,R5,2*
G04 #@! TO.N,GND*
X23495000Y14490000D03*
G04 #@! TO.P,R5,1*
G04 #@! TO.N,/dir_a*
X23495000Y15990000D03*
G04 #@! TD*
D18*
G04 #@! TO.P,R6,2*
G04 #@! TO.N,/FB*
X9005000Y5715000D03*
G04 #@! TO.P,R6,1*
G04 #@! TO.N,/12V*
X7505000Y5715000D03*
G04 #@! TD*
G04 #@! TO.P,R7,1*
G04 #@! TO.N,/FB*
X10045000Y5715000D03*
G04 #@! TO.P,R7,2*
G04 #@! TO.N,GND*
X11545000Y5715000D03*
G04 #@! TD*
G04 #@! TO.P,R8,2*
G04 #@! TO.N,Net-(D2-Pad2)*
X15760000Y27940000D03*
G04 #@! TO.P,R8,1*
G04 #@! TO.N,/VUSB*
X17260000Y27940000D03*
G04 #@! TD*
G04 #@! TO.P,R9,2*
G04 #@! TO.N,Net-(D3-Pad2)*
X15760000Y26035000D03*
G04 #@! TO.P,R9,1*
G04 #@! TO.N,/VUSB*
X17260000Y26035000D03*
G04 #@! TD*
D19*
G04 #@! TO.P,R10,2*
G04 #@! TO.N,Net-(J1-Pad1)*
X11610000Y31115000D03*
G04 #@! TO.P,R10,1*
G04 #@! TO.N,/VUSB*
X8710000Y31115000D03*
G04 #@! TD*
D20*
G04 #@! TO.P,SW1,1*
G04 #@! TO.N,/dir_b*
X29210000Y12225000D03*
G04 #@! TO.P,SW1,2*
G04 #@! TO.N,GND*
X29210000Y6825000D03*
G04 #@! TD*
G04 #@! TO.P,SW2,2*
G04 #@! TO.N,GND*
X19685000Y6825000D03*
G04 #@! TO.P,SW2,1*
G04 #@! TO.N,/dir_a*
X19685000Y12225000D03*
G04 #@! TD*
D21*
G04 #@! TO.P,U3,7*
G04 #@! TO.N,/motor_b*
X27305000Y19050000D03*
G04 #@! TO.P,U3,6*
G04 #@! TO.N,/12V*
X26035000Y22850000D03*
G04 #@! TO.P,U3,5*
G04 #@! TO.N,/dir_b*
X24765000Y19050000D03*
G04 #@! TO.P,U3,4*
G04 #@! TO.N,GND*
X23495000Y22850000D03*
G04 #@! TO.P,U3,3*
G04 #@! TO.N,/dir_a*
X22225000Y19050000D03*
G04 #@! TO.P,U3,2*
G04 #@! TO.N,Net-(U3-Pad2)*
X20955000Y22850000D03*
D22*
G04 #@! TO.P,U3,1*
G04 #@! TO.N,/motor_a*
X19685000Y19050000D03*
G04 #@! TD*
D23*
G04 #@! TO.P,U1,6*
G04 #@! TO.N,Net-(U1-Pad6)*
X11870000Y9840000D03*
G04 #@! TO.P,U1,5*
G04 #@! TO.N,/VBAT*
X11870000Y8890000D03*
G04 #@! TO.P,U1,4*
X11870000Y7940000D03*
G04 #@! TO.P,U1,3*
G04 #@! TO.N,/FB*
X8450000Y7940000D03*
G04 #@! TO.P,U1,2*
G04 #@! TO.N,GND*
X8450000Y8890000D03*
G04 #@! TO.P,U1,1*
G04 #@! TO.N,/SW*
X8450000Y9840000D03*
G04 #@! TD*
D24*
G04 #@! TO.P,U2,9*
G04 #@! TO.N,GND*
X7580000Y28205000D03*
X7580000Y26405000D03*
X8930000Y28205000D03*
X8930000Y26405000D03*
D25*
G04 #@! TO.P,U2,8*
G04 #@! TO.N,/VUSB*
X10955000Y29210000D03*
G04 #@! TO.P,U2,7*
G04 #@! TO.N,/chg*
X10955000Y27940000D03*
G04 #@! TO.P,U2,6*
G04 #@! TO.N,/stb*
X10955000Y26670000D03*
G04 #@! TO.P,U2,5*
G04 #@! TO.N,/VBAT*
X10955000Y25400000D03*
G04 #@! TO.P,U2,4*
G04 #@! TO.N,/VUSB*
X5555000Y25400000D03*
G04 #@! TO.P,U2,3*
G04 #@! TO.N,GND*
X5555000Y26670000D03*
G04 #@! TO.P,U2,2*
G04 #@! TO.N,/prog*
X5555000Y27940000D03*
G04 #@! TO.P,U2,1*
G04 #@! TO.N,/VUSB*
X5555000Y29210000D03*
G04 #@! TD*
D26*
G04 #@! TO.P,J2,1*
G04 #@! TO.N,/VBAT*
X1270000Y22225000D03*
G04 #@! TD*
G04 #@! TO.P,J3,1*
G04 #@! TO.N,/motor_a*
X19050000Y16510000D03*
G04 #@! TD*
G04 #@! TO.P,J4,1*
G04 #@! TO.N,/motor_b*
X29210000Y17145000D03*
G04 #@! TD*
G04 #@! TO.P,J5,1*
G04 #@! TO.N,GND*
X17145000Y22225000D03*
G04 #@! TD*
D27*
G04 #@! TO.N,GND*
X4040000Y26670000D02*
X3810000Y26440000D01*
X5555000Y26670000D02*
X4040000Y26670000D01*
D28*
X7160001Y38280001D02*
X13159999Y38280001D01*
X5710000Y36830000D02*
X7160001Y38280001D01*
X13159999Y38280001D02*
X14610000Y36830000D01*
X5710000Y39630000D02*
X5710000Y36830000D01*
X14610000Y36830000D02*
X14610000Y34130000D01*
X5710000Y36830000D02*
X5710000Y34130000D01*
X14610000Y39630000D02*
X14610000Y36830000D01*
D29*
X16105000Y32635000D02*
X14610000Y34130000D01*
X16105000Y31115000D02*
X16105000Y32635000D01*
D28*
X23495000Y22850000D02*
X23495000Y31115000D01*
X16329999Y38280001D02*
X13159999Y38280001D01*
X23495000Y31115000D02*
X16329999Y38280001D01*
X23495000Y28575000D02*
X23495000Y31115000D01*
X17145000Y22225000D02*
X23495000Y28575000D01*
X11025000Y3175000D02*
X16035000Y3175000D01*
X11545000Y3695000D02*
X11025000Y3175000D01*
X11545000Y5715000D02*
X11545000Y3695000D01*
D29*
X15240000Y7390000D02*
X15240000Y6985000D01*
X15240000Y7390000D02*
X15240000Y6350000D01*
D28*
X15240000Y3970000D02*
X16035000Y3175000D01*
X15240000Y6350000D02*
X15240000Y3970000D01*
D30*
X11545000Y5715000D02*
X11545000Y5912070D01*
X11545000Y5912070D02*
X11245001Y6212069D01*
D29*
X10309999Y6914999D02*
X10160000Y7064998D01*
X10865001Y6914999D02*
X10309999Y6914999D01*
X11545000Y5912070D02*
X11545000Y6235000D01*
X11545000Y6235000D02*
X10865001Y6914999D01*
X10160000Y7064998D02*
X10160000Y8255000D01*
D27*
X9950000Y8890000D02*
X8450000Y8890000D01*
X10160000Y8680000D02*
X9950000Y8890000D01*
X10160000Y8255000D02*
X10160000Y8680000D01*
X29210000Y6825000D02*
X27910000Y6825000D01*
X24130000Y14490000D02*
X24130000Y6825000D01*
X24130000Y6825000D02*
X19685000Y6825000D01*
X27910000Y6825000D02*
X24130000Y6825000D01*
X24130000Y14490000D02*
X25400000Y14490000D01*
X23495000Y14490000D02*
X24130000Y14490000D01*
D30*
X17190010Y11197720D02*
X17190010Y4330010D01*
X17145000Y11242730D02*
X17190010Y11197720D01*
X17145000Y22225000D02*
X17145000Y11242730D01*
X17190010Y4330010D02*
X17145000Y4285000D01*
D28*
X16035000Y3175000D02*
X17145000Y4285000D01*
X17145000Y4285000D02*
X19685000Y6825000D01*
D27*
X5810000Y34030000D02*
X5710000Y34130000D01*
X8560000Y34030000D02*
X5810000Y34030000D01*
X7315000Y26670000D02*
X7580000Y26405000D01*
X5555000Y26670000D02*
X7315000Y26670000D01*
D30*
X5710000Y33880000D02*
X5710000Y34130000D01*
X1089990Y29259990D02*
X5710000Y33880000D01*
X1089990Y25149385D02*
X1089990Y29259990D01*
X6889992Y23949990D02*
X2289385Y23949990D01*
X7580000Y24639998D02*
X6889992Y23949990D01*
X2289385Y23949990D02*
X1089990Y25149385D01*
X7580000Y26405000D02*
X7580000Y24639998D01*
X8930000Y26405000D02*
X8930000Y28205000D01*
X8930000Y28205000D02*
X7580000Y28205000D01*
X7580000Y28205000D02*
X7580000Y26405000D01*
D28*
G04 #@! TO.N,/12V*
X5525000Y3175000D02*
X8025000Y3175000D01*
X4445000Y4255000D02*
X5525000Y3175000D01*
X4445000Y5295000D02*
X4445000Y4255000D01*
D27*
X7505000Y3695000D02*
X8025000Y3175000D01*
X7505000Y5715000D02*
X7505000Y3695000D01*
X21790000Y14490000D02*
X22540000Y15240000D01*
X21590000Y14490000D02*
X21790000Y14490000D01*
X27105000Y14490000D02*
X27305000Y14490000D01*
X26355000Y15240000D02*
X27105000Y14490000D01*
X22540000Y15240000D02*
X26355000Y15240000D01*
D30*
X26934999Y21950001D02*
X26035000Y22850000D01*
X27143001Y21950001D02*
X26934999Y21950001D01*
X27119992Y1224990D02*
X30960001Y5064999D01*
X9675010Y1224990D02*
X27119992Y1224990D01*
X8025000Y2875000D02*
X9675010Y1224990D01*
X30960001Y18133001D02*
X27143001Y21950001D01*
X8025000Y3175000D02*
X8025000Y2875000D01*
D27*
X27305000Y11519998D02*
X29299998Y9525000D01*
X27305000Y14490000D02*
X27305000Y11519998D01*
X29299998Y9525000D02*
X30960001Y9525000D01*
D30*
X30960001Y5064999D02*
X30960001Y9525000D01*
X30960001Y9525000D02*
X30960001Y18133001D01*
D28*
G04 #@! TO.N,/VBAT*
X11075920Y17780000D02*
X14526260Y17780000D01*
D29*
X8115920Y21235920D02*
X7620000Y21235920D01*
X10955000Y24075000D02*
X8115920Y21235920D01*
X10955000Y25400000D02*
X10955000Y24075000D01*
D28*
X7620000Y21235920D02*
X11075920Y17780000D01*
X14526260Y11103740D02*
X15240000Y10390000D01*
X14526260Y17780000D02*
X14526260Y11103740D01*
D27*
X11870000Y8890000D02*
X13335000Y8890000D01*
X11870000Y7940000D02*
X13020000Y7940000D01*
X13335000Y8255000D02*
X13335000Y8890000D01*
X13020000Y7940000D02*
X13335000Y8255000D01*
D28*
X15240000Y10160000D02*
X14170001Y9090001D01*
X15240000Y10390000D02*
X15240000Y10160000D01*
D29*
X13335000Y8255000D02*
X14170001Y9090001D01*
X14170001Y9090001D02*
X13970000Y8890000D01*
D30*
X6630920Y22225000D02*
X7620000Y21235920D01*
X1270000Y22225000D02*
X6630920Y22225000D01*
D27*
G04 #@! TO.N,/VUSB*
X17260000Y27960000D02*
X17260000Y27940000D01*
X14105000Y31115000D02*
X17260000Y27960000D01*
X13105000Y31115000D02*
X14105000Y31115000D01*
X17260000Y27940000D02*
X17260000Y26035000D01*
D29*
X2889998Y25400000D02*
X2540000Y25749998D01*
X5555000Y25400000D02*
X2889998Y25400000D01*
X7260000Y31115000D02*
X8710000Y31115000D01*
X5024998Y31115000D02*
X7260000Y31115000D01*
X2540000Y28630002D02*
X5024998Y31115000D01*
X2540000Y25749998D02*
X2540000Y28630002D01*
X5555000Y30584998D02*
X5024998Y31115000D01*
X5555000Y29210000D02*
X5555000Y30584998D01*
X10615000Y29210000D02*
X8710000Y31115000D01*
X10955000Y29210000D02*
X10615000Y29210000D01*
X13105000Y29315000D02*
X13105000Y31115000D01*
X13000000Y29210000D02*
X13105000Y29315000D01*
X10955000Y29210000D02*
X13000000Y29210000D01*
D28*
G04 #@! TO.N,/SW*
X4445000Y17701260D02*
X4523740Y17780000D01*
X4445000Y9945000D02*
X4445000Y17701260D01*
D27*
X8450000Y10665000D02*
X8320000Y10795000D01*
X8450000Y9840000D02*
X8450000Y10665000D01*
D28*
X5165000Y10665000D02*
X4445000Y9945000D01*
X8450000Y10665000D02*
X5165000Y10665000D01*
D27*
G04 #@! TO.N,/chg*
X10955000Y27940000D02*
X12535000Y27940000D01*
G04 #@! TO.N,Net-(D2-Pad2)*
X15760000Y27940000D02*
X14135000Y27940000D01*
G04 #@! TO.N,Net-(D3-Pad2)*
X15760000Y26035000D02*
X14135000Y26035000D01*
G04 #@! TO.N,/stb*
X11900000Y26670000D02*
X10955000Y26670000D01*
X12535000Y26035000D02*
X11900000Y26670000D01*
G04 #@! TO.N,Net-(J1-Pad1)*
X11760000Y31265000D02*
X11610000Y31115000D01*
X11760000Y34030000D02*
X11760000Y31265000D01*
D30*
G04 #@! TO.N,/motor_b*
X27305000Y19050000D02*
X29210000Y17145000D01*
G04 #@! TO.N,/motor_a*
X19685000Y17145000D02*
X19050000Y16510000D01*
X19685000Y19050000D02*
X19685000Y17145000D01*
D27*
G04 #@! TO.N,/dir_b*
X24765000Y16625000D02*
X25400000Y15990000D01*
X24765000Y19050000D02*
X24765000Y16625000D01*
X25400000Y15990000D02*
X27305000Y15990000D01*
X29210000Y14085000D02*
X27305000Y15990000D01*
X29210000Y12225000D02*
X29210000Y14085000D01*
G04 #@! TO.N,/prog*
X3810000Y27940000D02*
X5555000Y27940000D01*
G04 #@! TO.N,/dir_a*
X23495000Y15990000D02*
X21590000Y15990000D01*
X21590000Y18415000D02*
X22225000Y19050000D01*
X21590000Y15990000D02*
X21590000Y18415000D01*
X19685000Y14085000D02*
X21590000Y15990000D01*
X19685000Y12225000D02*
X19685000Y14085000D01*
G04 #@! TO.N,/FB*
X9005000Y5715000D02*
X10045000Y5715000D01*
X9005000Y7385000D02*
X8450000Y7940000D01*
X9005000Y5715000D02*
X9005000Y7385000D01*
G04 #@! TD*
M02*
